<svg width="14" height="14" viewBox="0 0 14 14" fill="none" xmlns="http://www.w3.org/2000/svg">
<path d="M10.0322 0.782349H4.32645C2.46947 0.782349 0.95874 2.29307 0.95874 4.15006V9.85591C0.95874 11.7128 2.46947 13.2235 4.32645 13.2235H10.0323C11.8892 13.2235 13.3999 11.7128 13.3999 9.85591V4.15006C13.3999 2.29307 11.8892 0.782349 10.0322 0.782349V0.782349ZM12.6706 9.85591C12.6706 11.3106 11.487 12.4942 10.0322 12.4942H4.32645C2.87164 12.4942 1.6881 11.3106 1.6881 9.85591V4.15006C1.6881 2.69524 2.87164 1.5117 4.32645 1.5117H10.0323C11.487 1.5117 12.6706 2.69524 12.6706 4.15006V9.85591Z" fill="white"/>
<path d="M7.17901 3.60095C5.30323 3.60095 3.77722 5.12696 3.77722 7.00274C3.77722 8.87852 5.30323 10.4045 7.17901 10.4045C9.05479 10.4045 10.5808 8.87852 10.5808 7.00274C10.5808 5.12696 9.05479 3.60095 7.17901 3.60095ZM7.17901 9.67518C5.70549 9.67518 4.50658 8.47635 4.50658 7.00274C4.50658 5.52922 5.70549 4.33031 7.17901 4.33031C8.65262 4.33031 9.85145 5.52922 9.85145 7.00274C9.85145 8.47635 8.65262 9.67518 7.17901 9.67518Z" fill="white"/>
<path d="M10.6624 2.39282C10.1081 2.39282 9.65723 2.84378 9.65723 3.39801C9.65723 3.95234 10.1081 4.40329 10.6624 4.40329C11.2167 4.40329 11.6677 3.95234 11.6677 3.39801C11.6677 2.84369 11.2167 2.39282 10.6624 2.39282ZM10.6624 3.67384C10.5104 3.67384 10.3866 3.55007 10.3866 3.39801C10.3866 3.24586 10.5104 3.12218 10.6624 3.12218C10.8146 3.12218 10.9383 3.24586 10.9383 3.39801C10.9383 3.55007 10.8146 3.67384 10.6624 3.67384Z" fill="white"/>
</svg>
