<svg width="17" height="17" viewBox="0 0 17 17" fill="none" xmlns="http://www.w3.org/2000/svg">
<path d="M17 8.08657L15.0755 5.94989L15.3768 3.08941L12.5627 2.49368L11.1272 0L8.5 1.1742L8.14539 8.08657L8.5 14.9989L11.1273 16.1731L12.5627 13.6795L15.3768 13.0837L15.0755 10.2232L17 8.08657Z" fill="#0ED678"/>
<path d="M5.8727 0L4.43727 2.49368L1.62316 3.08944L1.92448 5.94989L0 8.08657L1.92448 10.2232L1.62316 13.0837L4.43727 13.6795L5.87274 16.1731L8.50002 14.9989V1.1742L5.8727 0Z" fill="#04EB84"/>
<path d="M12.0634 6.22539L11.3194 5.56128L8.5 8.71996L8.14539 9.50495L8.5 10.2177L12.0634 6.22539Z" fill="#F7F0EB"/>
<path d="M5.53707 7.33545L4.83191 8.04065L7.79675 11.0055L8.50002 10.2176V8.71992L7.75559 9.55394L5.53707 7.33545Z" fill="#FFFBF5"/>
</svg>
