<svg width="13" height="11" viewBox="0 0 13 11" fill="none" xmlns="http://www.w3.org/2000/svg">
<path d="M11.0575 2.79457L10.8724 2.92597L10.8833 3.15266C11.0576 6.7726 8.28821 10.3056 4.04745 10.3056C3.25439 10.3056 2.49596 10.1727 1.79068 9.92644C2.6745 9.75767 3.48489 9.37975 4.16295 8.84953L5.07846 8.13364L3.91655 8.10824C3.21479 8.0929 2.59393 7.73624 2.21166 7.19791C2.4076 7.18591 2.60057 7.15607 2.78552 7.10533L2.759 6.29912C1.987 6.14107 1.36104 5.56333 1.1364 4.81224C1.34302 4.8648 1.55826 4.89566 1.77685 4.8998L3.19138 4.92663L2.01518 4.1404C1.44658 3.76032 1.06624 3.10426 1.06624 2.3655C1.06624 2.1863 1.08874 2.01251 1.13095 1.84569C2.44065 3.19375 4.2364 4.06073 6.2381 4.15861L6.78364 4.18529L6.66278 3.65264C6.62921 3.50465 6.61397 3.34214 6.61397 3.16278C6.61397 1.98579 7.56631 1.02652 8.74815 1.02652C9.35738 1.02652 9.91633 1.2846 10.3088 1.70276L10.4666 1.87082L10.6926 1.82558C10.8206 1.79996 10.9471 1.77019 11.0719 1.7363C11.0147 1.77861 10.9552 1.81822 10.8937 1.85496L11.1585 2.62243C11.2092 2.61599 11.2598 2.60891 11.3101 2.60121C11.2284 2.66852 11.1442 2.73301 11.0575 2.79457Z" stroke="white" stroke-width="0.829412"/>
</svg>
