<svg width="17" height="13" viewBox="0 0 17 13" fill="none" xmlns="http://www.w3.org/2000/svg">
<path d="M15.686 2.64991C15.605 2.32635 15.4401 2.02988 15.2078 1.79046C14.9756 1.55104 14.6843 1.37715 14.3633 1.28635C13.1907 1 8.5 1 8.5 1C8.5 1 3.80933 1 2.63667 1.31362C2.31572 1.40442 2.02441 1.57832 1.79218 1.81773C1.55994 2.05715 1.395 2.35362 1.31401 2.67719C1.09939 3.86728 0.994415 5.07455 1.00039 6.28382C0.99274 7.50219 1.09773 8.71867 1.31401 9.91772C1.4033 10.2312 1.57193 10.5164 1.80363 10.7457C2.03532 10.975 2.32224 11.1407 2.63667 11.2267C3.80933 11.5404 8.5 11.5404 8.5 11.5404C8.5 11.5404 13.1907 11.5404 14.3633 11.2267C14.6843 11.1359 14.9756 10.962 15.2078 10.7226C15.4401 10.4832 15.605 10.1867 15.686 9.86318C15.899 8.68205 16.0039 7.48398 15.9996 6.28382C16.0073 5.06544 15.9023 3.84896 15.686 2.64991V2.64991Z" stroke="white" stroke-linecap="round" stroke-linejoin="round"/>
<path d="M6.96594 8.51318L10.8862 6.28375L6.96594 4.05432V8.51318Z" stroke="white" stroke-linecap="round" stroke-linejoin="round"/>
</svg>
